# xmcd CD database file
#
# Track frame offsets:
#	150
#	19605
#	36029
#	57910
#	81683
#	99820
#	122184
#	141184
#	158804
#	185991
#	198776
#
# Disc length: 2980 seconds
#
# Revision: 0
# Processed by: cddbd v1.5.2PL0 Copyright (c) Steve Scherf et al.
# Submitted via: CDex 1.70beta2
#
DISCID=930ba20b
DTITLE=山崎まさよし - HOME～山崎まさよしトリビュート～ DISC 2
DYEAR=1900
DGENRE=Blues
TTITLE0=僕はここにいる
TTITLE1=ツバメ
TTITLE2=振り向かない
TTITLE3=全部、君だった。
TTITLE4=ペンギン
TTITLE5=未完成
TTITLE6=水のない水槽
TTITLE7=やわらかい月
TTITLE8=妖精といた夏
TTITLE9=ガムシャラ　バタフライ
TTITLE10=One more time, One more chance
EXTD=
EXTT0=
EXTT1=
EXTT2=
EXTT3=
EXTT4=
EXTT5=
EXTT6=
EXTT7=
EXTT8=
EXTT9=
EXTT10=
PLAYORDER=
